/* XPM */
static char * battery_on[] = {
"32 15 4 1",
" 	c None",
".	c #fabd2f",
"+	c #ebdbb2",
"@	c #83a598",
"                .               ",
" +++++++++++++ .. +++++++++++   ",
" +             ..           +   ",
" + @@@@@@     ...           +   ",
" + @@@@@@    ....           +++ ",
" + @@@@@@   .....             + ",
" + @@@@@@   ........          + ",
" + @@@@@@  ........           + ",
" + @@@@@@ ........            + ",
" + @@@@@@    .....            + ",
" + @@@@@@    ....           +++ ",
" + @@@@@@    ...            +   ",
" +           ..             +   ",
" +++++++++++ .. +++++++++++++   ",
"             .                  "};
