/* XPM */
static char * battery_off[] = {
"32 15 3 1",
" 	c None",
"+	c #ebdbb2",
"@	c #fb4934",
"                                ",
" ++++++++++++++++++++++++++++   ",
" +                          +   ",
" + @                        +   ",
" + @                        +++ ",
" + @                          + ",
" + @                          + ",
" + @                          + ",
" + @                          + ",
" + @                          + ",
" + @                        +++ ",
" + @                        +   ",
" +                          +   ",
" ++++++++++++++++++++++++++++   ",
"                                "};
