/* XPM */
static char * volume_off[] = {
"9 15 2 1",
" 	c None",
"@	c #fb4934",
"         ",
"       @ ",
"      @@ ",
"     @ @ ",
"    @  @ ",
" @@@   @ ",
" @     @ ",
" @     @ ",
" @     @ ",
" @@@   @ ",
"    @  @ ",
"     @ @ ",
"      @@ ",
"       @ ",
"         "};
